
<svg width="200" height="200" viewBox="0 0 200 200" fill="none" xmlns="http://www.w3.org/2000/svg">
  <circle cx="100" cy="100" r="90" fill="#1A365D" />
  <circle cx="100" cy="100" r="75" fill="#FFF" stroke="#1A365D" stroke-width="2" />
  <path d="M100 25C83.87 25 68.38 30.27 55.55 39.95C42.72 49.64 33.25 63.18 28.68 78.61C24.11 94.04 24.76 110.52 30.54 125.52C36.32 140.52 46.83 153.2 60.5 161.45L100 100L100 25Z" fill="#1A365D" />
  <path d="M100 25V100L139.5 161.45C153.17 153.2 163.68 140.52 169.46 125.52C175.24 110.52 175.89 94.04 171.32 78.61C166.75 63.18 157.28 49.64 144.45 39.95C131.62 30.27 116.13 25 100 25Z" fill="#E6B32A" />
  <circle cx="100" cy="100" r="20" fill="#E6B32A" />
  <path d="M95 80H105V120H95V80Z" fill="#1A365D" />
  <path d="M80 95H120V105H80V95Z" fill="#1A365D" />
  <circle cx="100" cy="100" r="80" stroke="#E6B32A" stroke-width="5" stroke-dasharray="10 5" />
  
  <!-- State Emblem of Tamil Nadu -->
  <g transform="translate(58, 40) scale(0.25)">
    <path d="M110 20C132.868 20 153.868 28.5607 169.497 43.7868C185.126 59.0129 194 79.5393 194 102C194 124.461 185.126 144.987 169.497 160.213C153.868 175.439 132.868 184 110 184C87.1315 184 66.1317 175.439 50.5025 160.213C34.8733 144.987 26 124.461 26 102C26 79.5393 34.8733 59.0129 50.5025 43.7868C66.1317 28.5607 87.1315 20 110 20Z" fill="#1A365D" />
    <path d="M110 35C128.565 35 146.37 42.1116 159.498 54.8853C172.625 67.659 180 85.1088 180 103.331C180 121.553 172.625 139.003 159.498 151.776C146.37 164.55 128.565 171.662 110 171.662C91.435 171.662 73.6301 164.55 60.5025 151.776C47.375 139.003 40 121.553 40 103.331C40 85.1088 47.375 67.659 60.5025 54.8853C73.6301 42.1116 91.435 35 110 35Z" fill="white" />
    <path d="M110 40C110 40 110 103.331 110 103.331C110 103.331 40 103.331 40 103.331C40 85.1088 47.375 67.659 60.5025 54.8853C73.6301 42.1116 91.435 35 110 35V40Z" fill="#1A365D" />
    <path d="M110 40V103.331H180C180 85.1088 172.625 67.659 159.498 54.8853C146.37 42.1116 128.565 35 110 35V40Z" fill="#E6B32A" />
    <path d="M110 171.662C128.565 171.662 146.37 164.55 159.498 151.776C172.625 139.003 180 121.553 180 103.331H110V171.662Z" fill="#E6B32A" />
    <path d="M40 103.331C40 121.553 47.375 139.003 60.5025 151.776C73.6301 164.55 91.435 171.662 110 171.662V103.331H40Z" fill="#1A365D" />
    <path d="M82 103.331H138V122.331H82V103.331Z" fill="#E6B32A" />
    <path d="M110 75.331L118.66 93.331H138.301L122.821 104.997L129.389 122.997L110 112.331L90.6107 122.997L97.1788 104.997L81.6987 93.331H101.34L110 75.331Z" fill="#E6B32A" />
  </g>
  
  <text x="100" y="165" text-anchor="middle" font-family="Arial" font-weight="bold" font-size="12" fill="#1A365D">TAMIL NADU POLICE</text>
  <text x="100" y="178" text-anchor="middle" font-family="Arial" font-size="8" fill="#1A365D">TRAFFIC MANAGEMENT</text>
</svg>
